<svg width="52" height="52" viewBox="0 0 52 52" fill="none" xmlns="http://www.w3.org/2000/svg">
<path fill-rule="evenodd" clip-rule="evenodd" d="M40.625 23.2917V17.3333H43.875V23.2917H49.8334V26.5417H43.875V32.5H40.625V26.5417H34.6667V23.2917H40.625ZM16.9694 26.7583C15.3747 24.869 14.0834 21.3417 14.0834 18.8717V15.1667C14.0834 12.8681 14.9964 10.6637 16.6218 9.03841C18.2471 7.41309 20.4515 6.5 22.75 6.5C25.0486 6.5 27.253 7.41309 28.8783 9.03841C30.5036 10.6637 31.4167 12.8681 31.4167 15.1667V18.8717C31.4167 21.3417 30.1167 24.8798 28.5307 26.7627L27.7485 27.69C26.4702 29.2045 26.8689 31.1307 28.6564 32.0017L40.9197 37.986C42.2522 38.636 43.3334 40.3542 43.3334 41.8492V43.3377C43.3322 43.9119 43.1031 44.4622 42.6965 44.8677C42.2898 45.2732 41.7388 45.5006 41.1645 45.5H4.33335C3.75947 45.5 3.20902 45.2723 2.80282 44.8669C2.39661 44.4615 2.16783 43.9116 2.16669 43.3377V41.8492C2.16669 40.365 3.24569 38.636 4.58035 37.9838L16.8437 31.9995C18.6225 31.1328 19.0364 29.2088 17.7537 27.6878L16.9694 26.7583Z" fill="#FFFEFD"/>
</svg>
