<svg width="10" height="13" viewBox="0 0 10 13" fill="none" xmlns="http://www.w3.org/2000/svg">
<path d="M9.4455 5.75983L7.17878 5.11924C6.99373 5.06693 6.88878 4.87237 6.94743 4.69031L8.0283 1.3349C8.19085 1.1231 8.1857 0.819449 8.00119 0.611685C7.7914 0.375712 7.4295 0.352915 7.19276 0.561008L0.442043 6.49816C0.205367 6.70632 0.183563 7.06653 0.39331 7.30268C0.467709 7.38667 0.565317 7.44699 0.673883 7.47605C0.69365 7.48135 0.71371 7.48514 0.733851 7.48831C0.752977 7.49569 0.772568 7.50227 0.792831 7.5077L2.49042 7.96257C2.69657 8.01781 2.80152 8.24626 2.70842 8.43705L0.973377 11.9933C0.782626 12.193 0.760812 12.5067 0.935413 12.7326C1.01203 12.832 1.11946 12.9035 1.24097 12.936C1.4073 12.9806 1.59172 12.9503 1.73857 12.838L9.60881 6.81814C9.68135 6.76266 9.73934 6.69056 9.77785 6.60795C9.80498 6.56406 9.82697 6.51602 9.84165 6.46394C9.92735 6.16111 9.74994 5.84588 9.4455 5.75983Z" fill="url(#paint0_linear_5_146)"/>
<defs>
<linearGradient id="paint0_linear_5_146" x1="6.77923" y1="0.186152" x2="6.77923" y2="9.88568" gradientUnits="userSpaceOnUse">
<stop stop-color="#FFB300"/>
<stop offset="1" stop-color="#FD902B"/>
</linearGradient>
</defs>
</svg>
