<svg width="28" height="28" viewBox="0 0 28 28" fill="none" xmlns="http://www.w3.org/2000/svg">
<path fill-rule="evenodd" clip-rule="evenodd" d="M6.07484 6.40031C6.17847 6.22736 6.32516 6.08422 6.50059 5.98485C6.67602 5.88548 6.87421 5.83327 7.07584 5.83331H20.9207C21.1223 5.83327 21.3205 5.88548 21.4959 5.98485C21.6713 6.08422 21.818 6.22736 21.9217 6.40031L24.5513 10.7835C24.6044 10.872 24.633 10.973 24.6343 11.0762C24.6355 11.1794 24.6094 11.2811 24.5585 11.3709C24.5076 11.4607 24.4338 11.5354 24.3446 11.5874C24.2554 11.6393 24.154 11.6667 24.0508 11.6666H22.75V21.5833C22.75 21.8927 22.6271 22.1895 22.4083 22.4083C22.1895 22.6271 21.8928 22.75 21.5833 22.75H13.4167C13.1073 22.75 12.8105 22.6271 12.5917 22.4083C12.3729 22.1895 12.25 21.8927 12.25 21.5833V15.4C12.25 15.3381 12.2254 15.2787 12.1817 15.235C12.1379 15.1912 12.0786 15.1666 12.0167 15.1666H8.4C8.33812 15.1666 8.27877 15.1912 8.23501 15.235C8.19125 15.2787 8.16667 15.3381 8.16667 15.4V21.5833C8.16667 21.8927 8.04375 22.1895 7.82496 22.4083C7.60617 22.6271 7.30942 22.75 7 22.75H6.41667C6.10725 22.75 5.8105 22.6271 5.59171 22.4083C5.37292 22.1895 5.25 21.8927 5.25 21.5833V11.6666H3.94567C3.84236 11.6669 3.74084 11.6397 3.6515 11.5878C3.56216 11.5359 3.48819 11.4613 3.43716 11.3714C3.38614 11.2816 3.35988 11.1798 3.36109 11.0765C3.36229 10.9732 3.3909 10.8721 3.444 10.7835L6.07484 6.40031ZM14.5833 15.3603C14.5833 15.092 14.8015 14.875 15.0698 14.875H19.9302C20.1985 14.875 20.4167 15.0931 20.4167 15.3615V18.7635C20.4167 19.0318 20.1997 19.25 19.9302 19.25H15.0698C15.0059 19.25 14.9427 19.2374 14.8837 19.2129C14.8246 19.1885 14.771 19.1527 14.7258 19.1075C14.6807 19.0623 14.6448 19.0087 14.6204 18.9497C14.5959 18.8906 14.5833 18.8274 14.5833 18.7635V15.3603Z" fill="#595C61"/>
</svg>
