<svg width="27" height="25" viewBox="0 0 27 25" fill="none" xmlns="http://www.w3.org/2000/svg">
<path d="M7.5433 12.3396L19.0353 5.3316C19.0353 5.3316 23.6709 6.0566 22.346 10.1007L18.3719 13.1569L11.4588 18.3694C11.4588 18.3694 11.5545 15.7792 10.3408 14.4139C9.25136 13.291 8.79708 13.291 7.54367 12.3396" fill="#D0CFCE"/>
<path d="M8.83751 13.7503L7.87479 14.3476C7.87479 14.3476 9.88076 15.0684 10.0216 16.1045C10.1624 17.1406 10.179 17.7156 9.95045 18.1569C9.72187 18.5983 8.65587 19.3767 6.42493 19.5538C6.42493 19.5538 7.74551 20.2233 8.59882 20.1486C9.61462 20.0594 10.8615 18.775 10.9099 18.2354C10.9583 17.6958 11.1197 16.4125 10.7673 15.9174C10.369 15.358 8.83751 13.7503 8.83751 13.7503Z" fill="#9B9B9A"/>
<path d="M6.32166 19.4424C6.32166 19.4424 5.28166 18.8389 5.31416 16.6562C5.31416 16.6562 5.38891 16.0382 5.85944 15.517C6.43613 14.8767 7.43677 14.5747 8.1673 15.0476C8.60316 15.3299 8.93394 16.0128 8.59883 16.9C8.59883 16.9 7.60722 15.2569 6.86369 16.2139C6.86369 16.2139 5.96236 18.1059 7.36311 18.8038C7.36311 18.8038 8.76133 19.0781 9.03397 18.8038C9.30661 18.5295 8.48147 20.4826 6.32166 19.4424Z" fill="#D0CFCE"/>
<path d="M8.16731 15.0476C8.34027 15.3352 8.4446 15.6562 8.47277 15.9874C8.50093 16.3186 8.45223 16.6516 8.33017 16.9625C8.33017 16.9625 8.25578 18.5444 7.01212 18.024C7.01212 18.024 7.19412 18.8358 8.37134 18.7524C8.37134 18.7524 10.2968 18.5865 9.89523 16.3958C9.89523 16.3958 9.1405 15.0684 8.16731 15.0476Z" fill="#9B9B9A"/>
<path d="M8.1673 16.7337C8.1673 16.7337 7.86758 15.8594 7.06627 16.1715C7.06627 16.1715 6.37835 17.0667 6.78641 17.8368C6.79507 17.9639 6.83563 18.0871 6.90462 18.1958C6.97361 18.3045 7.06897 18.3956 7.18255 18.4611C7.18255 18.4611 8.33449 18.2229 8.29116 17.2389L8.1673 16.7337Z" fill="#D0CFCE"/>
<path d="M17.2623 14.1719C17.5504 13.2658 17.5233 12.294 17.1851 11.4041C16.8469 10.5141 16.2159 9.75457 15.3881 9.24063L11.2043 11.7368C11.2043 11.7368 14.6186 13.5611 13.6681 16.8913L17.2623 14.1719Z" fill="#3F3F3F"/>
<path d="M10.7702 15.4802C10.7702 15.4802 9.69876 13.6378 7.01245 12.3559L17.7786 5.82986C18.3398 5.51285 18.9623 5.11875 19.6336 5.24514C20.4285 5.42424 21.1519 5.82203 21.7155 6.38992C22.2791 6.95782 22.6586 7.67124 22.8075 8.44306C23.0093 9.45556 22.3232 10.391 21.5714 10.9757L9.95045 19.8431" stroke="black" stroke-width="0.5" stroke-linecap="round" stroke-linejoin="round"/>
<path d="M8.33052 16.9625C8.36121 15.8802 7.52488 15.9219 7.52488 15.9219C6.9388 15.8861 6.67988 16.4069 6.56577 16.8583C6.45999 17.2655 6.50388 17.6954 6.68999 18.075C7.44471 19.5715 9.06466 18.7569 9.06466 18.7569C9.39693 18.5464 9.66034 18.2496 9.82434 17.901C9.98834 17.5523 10.0462 17.1661 9.99127 16.7872C9.97811 16.6303 9.93733 16.4767 9.87066 16.333C9.70986 15.9252 9.44778 15.5615 9.10726 15.2735C8.76675 14.9855 8.35814 14.7819 7.91704 14.6806C7.39072 14.5824 6.8453 14.6616 6.37255 14.9047C5.89981 15.1479 5.5286 15.5402 5.32138 16.0156C5.23471 16.2034 5.16345 16.3963 5.1076 16.5944C5.07799 16.6993 5.05897 16.8059 5.05054 16.9142C4.99688 17.4928 5.10204 18.0747 5.35551 18.602C5.60898 19.1292 6.00189 19.5832 6.49499 19.9188C9.11124 21.4601 10.737 19.0639 10.737 19.0639C11.0401 18.6292 11.2274 18.1295 11.2826 17.6088C11.3378 17.0881 11.259 16.5623 11.0533 16.0778C10.2332 13.8403 7.01246 12.3556 7.01246 12.3556" stroke="black" stroke-width="0.5" stroke-linecap="round" stroke-linejoin="round"/>
<path d="M6.32166 14.9344C6.44552 14.8688 8.59882 13.5698 8.59882 13.5698M19.6802 12.3559C19.7373 9.00174 17.1503 7.84653 17.1503 7.84653M21.5714 10.9757C21.6416 10.2397 21.4953 9.49953 21.1493 8.83957C20.8032 8.17962 20.2713 7.62643 19.6142 7.24306M17.2622 14.1719C17.5504 13.2658 17.5233 12.294 17.1851 11.4041C16.8468 10.5141 16.2159 9.75457 15.3881 9.24062L11.2042 11.7368C11.2042 11.7368 14.5424 13.7347 13.5912 17.0649L17.2622 14.1719Z" stroke="black" stroke-width="0.5" stroke-linecap="round" stroke-linejoin="round"/>
</svg>
