<svg width="16" height="16" viewBox="0 0 16 16" fill="none" xmlns="http://www.w3.org/2000/svg">
<path d="M7.94855 0.807495C6.46519 0.807495 5.01514 1.24736 3.78177 2.07147C2.5484 2.89558 1.58711 4.06692 1.01945 5.43737C0.451797 6.80781 0.303272 8.31581 0.592661 9.77067C0.88205 11.2255 1.59636 12.5619 2.64525 13.6108C3.69414 14.6597 5.03051 15.374 6.48537 15.6634C7.94023 15.9528 9.44823 15.8042 10.8187 15.2366C12.1891 14.6689 13.3605 13.7076 14.1846 12.4743C15.0087 11.2409 15.4485 9.79085 15.4485 8.30749C15.4464 6.31901 14.6556 4.41258 13.2495 3.00651C11.8435 1.60045 9.93703 0.809595 7.94855 0.807495ZM7.66009 4.26903C7.83124 4.26903 7.99856 4.31979 8.14087 4.41488C8.28318 4.50997 8.3941 4.64512 8.4596 4.80325C8.5251 4.96138 8.54224 5.13538 8.50884 5.30325C8.47545 5.47111 8.39303 5.62531 8.27201 5.74634C8.15098 5.86736 7.99678 5.94978 7.82892 5.98317C7.66105 6.01656 7.48705 5.99943 7.32892 5.93393C7.17079 5.86843 7.03564 5.75751 6.94055 5.6152C6.84546 5.47289 6.7947 5.30557 6.7947 5.13442C6.7947 4.9049 6.88588 4.68479 7.04817 4.5225C7.21046 4.36021 7.43057 4.26903 7.66009 4.26903ZM8.52547 12.346C8.21945 12.346 7.92597 12.2244 7.70958 12.008C7.49319 11.7916 7.37163 11.4981 7.37163 11.1921V8.30749C7.21862 8.30749 7.07187 8.24671 6.96368 8.13852C6.85549 8.03032 6.7947 7.88358 6.7947 7.73057C6.7947 7.57756 6.85549 7.43082 6.96368 7.32262C7.07187 7.21443 7.21862 7.15365 7.37163 7.15365C7.67765 7.15365 7.97113 7.27521 8.18752 7.4916C8.40391 7.70799 8.52547 8.00147 8.52547 8.30749V11.1921C8.67848 11.1921 8.82522 11.2529 8.93342 11.3611C9.04161 11.4693 9.1024 11.616 9.1024 11.769C9.1024 11.922 9.04161 12.0688 8.93342 12.177C8.82522 12.2852 8.67848 12.346 8.52547 12.346Z" fill="white" fill-opacity="0.5"/>
</svg>
